<?xml version="1.0" encoding="UTF-8"?>
<svg xmlns="http://www.w3.org/2000/svg" xmlns:xlink="http://www.w3.org/1999/xlink" width="48pt" height="48pt" viewBox="0 0 48 48" version="1.1">
<g id="surface12804717">
<path style=" stroke:none;fill-rule:nonzero;fill:rgb(29.803923%,68.627453%,31.37255%);fill-opacity:1;" d="M 45.421875 6.359375 L 25.261719 6.359375 L 25.261719 41.640625 L 45.421875 41.640625 C 46.117188 41.640625 46.679688 41.078125 46.679688 40.378906 L 46.679688 7.621094 C 46.679688 6.921875 46.117188 6.359375 45.421875 6.359375 Z M 45.421875 6.359375 "/>
<path style=" stroke:none;fill-rule:nonzero;fill:rgb(100%,100%,100%);fill-opacity:1;" d="M 34.078125 12.660156 L 42.898438 12.660156 L 42.898438 16.441406 L 34.078125 16.441406 Z M 34.078125 25.261719 L 42.898438 25.261719 L 42.898438 29.039062 L 34.078125 29.039062 Z M 34.078125 31.558594 L 42.898438 31.558594 L 42.898438 35.339844 L 34.078125 35.339844 Z M 34.078125 18.960938 L 42.898438 18.960938 L 42.898438 22.738281 L 34.078125 22.738281 Z M 25.261719 12.660156 L 31.558594 12.660156 L 31.558594 16.441406 L 25.261719 16.441406 Z M 25.261719 25.261719 L 31.558594 25.261719 L 31.558594 29.039062 L 25.261719 29.039062 Z M 25.261719 31.558594 L 31.558594 31.558594 L 31.558594 35.339844 L 25.261719 35.339844 Z M 25.261719 18.960938 L 31.558594 18.960938 L 31.558594 22.738281 L 25.261719 22.738281 Z M 25.261719 18.960938 "/>
<path style=" stroke:none;fill-rule:nonzero;fill:rgb(18.039216%,49.019608%,19.607843%);fill-opacity:1;" d="M 27.78125 46.679688 L 1.320312 41.640625 L 1.320312 6.359375 L 27.78125 1.320312 Z M 27.78125 46.679688 "/>
<path style=" stroke:none;fill-rule:nonzero;fill:rgb(100%,100%,100%);fill-opacity:1;" d="M 17.863281 32.820312 L 14.824219 27.074219 C 14.707031 26.859375 14.589844 26.464844 14.46875 25.890625 L 14.421875 25.890625 C 14.363281 26.164062 14.226562 26.574219 14.011719 27.125 L 10.960938 32.820312 L 6.226562 32.820312 L 11.851562 24 L 6.707031 15.179688 L 11.539062 15.179688 L 14.0625 20.46875 C 14.257812 20.882812 14.433594 21.378906 14.589844 21.953125 L 14.640625 21.953125 C 14.738281 21.609375 14.921875 21.09375 15.195312 20.414062 L 18 15.179688 L 22.425781 15.179688 L 17.136719 23.921875 L 22.574219 32.816406 L 17.863281 32.816406 Z M 17.863281 32.820312 "/>
</g>
</svg>
