<svg id="Layer_1" enable-background="new 0 0 512 512" height="512" viewBox="0 0 512 512" width="512" xmlns="http://www.w3.org/2000/svg"><g><path d="m77.695 435.008 361.657-5.526c38.35-43.244 61.65-100.138 61.65-162.484 0-135.311-109.691-245.002-245.002-245.002s-245.002 109.691-245.002 245.002c0 65.036 25.35 124.146 66.697 168.01z" fill="#ffb332"/><path d="m256 512c72.966 0 138.469-31.908 183.352-82.519v-302.58c-8.139-35.437-46.75-37.608-47.245-37.628h-34.397c-4.215 0-7.631-3.417-7.631-7.631v-36.854c-.135-6.802-2.518-37.479-33.828-44.742-.111-.013-.292-.033-.404-.046h-223.965c-7.836 0-14.188 6.352-14.188 14.188v420.82c44.677 47.396 108.032 76.992 178.306 76.992z" fill="#4b6bb2"/><path d="m167.829 0h-75.947c-7.836 0-14.188 6.352-14.188 14.188v420.82c24.413 25.9 54.413 46.467 88.063 59.811-3.031-9.328 2.071-18.716 2.071-18.716v-15c-9.671-12.731 0-25.544 0-25.544v-15c-8.671-13.066 0-25.544 0-25.544v-15c-11.078-11.078 0-25.544 0-25.544v-15c-8.921-12.029 0-25.544 0-25.544v-15c-9.921-13.073 0-25.544 0-25.544v-15c-10.171-12.45 0-25.544 0-25.544v-15c-10.171-12.994 0-25.544 0-25.544v-15c-10.505-13.538 0-25.544 0-25.544v-15c-8.838-12.416 0-25.544 0-25.544v-15c-21.838-17.793-7.5-39.935-7.5-39.935v-15c-14.67-24.977 7.501-41.272 7.501-41.272z" fill="#3c58a0"/><path d="m416.207 67.628-44.483-44.483c-14.819-14.82-34.919-23.145-55.876-23.145h-14.075c43.794 0 46.662 37.532 46.806 44.818v36.824c0 5.043 4.088 9.131 9.131 9.131h34.397s47.245 2.1 47.245 50.1v-17.368c0-20.959-8.326-41.058-23.145-55.877z" fill="#f7f7f7"/><g><path d="m248.523 111.207h-104.16c-4.142 0-7.5-3.357-7.5-7.5s3.358-7.5 7.5-7.5h104.161c4.142 0 7.5 3.357 7.5 7.5-.001 4.143-3.359 7.5-7.501 7.5z" fill="#6087cc"/></g><g><path d="m162.852 56.273h-18.49c-4.142 0-7.5-3.357-7.5-7.5s3.358-7.5 7.5-7.5h18.49c4.142 0 7.5 3.357 7.5 7.5s-3.357 7.5-7.5 7.5z" fill="#e9efff"/></g><g><path d="m370.562 151.751h-226.2c-4.142 0-7.5-3.357-7.5-7.5s3.358-7.5 7.5-7.5h226.2c4.142 0 7.5 3.357 7.5 7.5s-3.358 7.5-7.5 7.5z" fill="#6087cc"/></g><g><path d="m370.562 192.295h-226.2c-4.142 0-7.5-3.357-7.5-7.5s3.358-7.5 7.5-7.5h226.2c4.142 0 7.5 3.357 7.5 7.5s-3.358 7.5-7.5 7.5z" fill="#6087cc"/></g><g><path d="m255.523 232.839h-111.16c-4.142 0-7.5-3.357-7.5-7.5s3.358-7.5 7.5-7.5h111.161c4.142 0 7.5 3.357 7.5 7.5-.001 4.143-3.359 7.5-7.501 7.5z" fill="#6087cc"/></g><g><path d="m213.779 273.383h-69.416c-4.142 0-7.5-3.357-7.5-7.5s3.358-7.5 7.5-7.5h69.416c4.142 0 7.5 3.357 7.5 7.5s-3.358 7.5-7.5 7.5z" fill="#6087cc"/></g><g><path d="m213.779 313.927h-69.416c-4.142 0-7.5-3.357-7.5-7.5s3.358-7.5 7.5-7.5h69.416c4.142 0 7.5 3.357 7.5 7.5s-3.358 7.5-7.5 7.5z" fill="#6087cc"/></g><g><path d="m255.523 354.471h-111.16c-4.142 0-7.5-3.357-7.5-7.5s3.358-7.5 7.5-7.5h111.161c4.142 0 7.5 3.357 7.5 7.5s-3.359 7.5-7.501 7.5z" fill="#6087cc"/></g><g><path d="m370.562 395.015h-226.2c-4.142 0-7.5-3.358-7.5-7.5 0-4.143 3.358-7.5 7.5-7.5h226.2c4.142 0 7.5 3.357 7.5 7.5s-3.358 7.5-7.5 7.5z" fill="#6087cc"/></g><g><path d="m370.562 435.559h-226.2c-4.142 0-7.5-3.357-7.5-7.5s3.358-7.5 7.5-7.5h226.2c4.142 0 7.5 3.357 7.5 7.5s-3.358 7.5-7.5 7.5z" fill="#6087cc"/></g><g><path d="m301.773 476.103h-157.41c-4.142 0-7.5-3.357-7.5-7.5s3.358-7.5 7.5-7.5h157.41c4.142 0 7.5 3.357 7.5 7.5s-3.358 7.5-7.5 7.5z" fill="#6087cc"/></g><path d="m366.263 213.477c-52.42 0-99.295 23.717-130.497 61.001-5.657 6.759-5.657 16.594 0 23.353 31.201 37.284 78.076 61.001 130.497 61.001s99.295-23.717 130.497-61.001c5.657-6.759 5.657-16.594 0-23.353-31.202-37.284-78.077-61.001-130.497-61.001z" fill="#e9efff"/><circle cx="366.263" cy="286.155" fill="#9bd8f9" r="72.678"/><path d="m26.037 351.647c9.974-13.498 15.894-30.15 15.894-48.123v-65.205c0-19.093-6.687-36.69-17.813-50.603-8.501 24.868-13.121 51.535-13.121 79.282.001 29.757 5.321 58.267 15.04 84.649z" fill="#ffdd40"/><path d="m402.551 53.972-30.827-30.827c-14.819-14.819-34.919-23.145-55.876-23.145h-14.075c43.793 0 46.662 37.532 46.806 44.818v36.824c0 5.043 4.088 9.131 9.131 9.131h20.352c-5.46-32.894 24.489-36.801 24.489-36.801z" fill="#e9efff"/><path d="m384.797 308.387-31.675-48.022c-27.732-3.778-23.509-36.582-23.455-36.993-21.576 12.604-36.082 35.993-36.082 62.783 0 40.139 32.539 72.678 72.678 72.678 17.618 0 33.77-6.272 46.351-16.701-32.411-4.701-27.817-33.745-27.817-33.745z" fill="#73c3f9"/><circle cx="366.263" cy="286.155" fill="#4fabf7" r="28.947"/><circle cx="388.666" cy="267.471" fill="#c0ecff" r="14.474"/></g></svg>